<svg width="32" height="32" viewBox="0 0 32 32" fill="none" xmlns="http://www.w3.org/2000/svg">
<g clip-path="url(#clip0_25323_235980)">
<g clip-path="url(#clip1_25323_235980)">
<path d="M7.27857 6.39916C6.26582 5.66863 7.36427 5.05005 7.98627 4.70516C8.72007 4.29829 9.34862 4.00735 10.1294 3.70557C10.6233 4.17043 10.5387 4.39239 11.2876 4.67629C11.6785 4.61987 11.8849 4.5602 12.2184 4.35273C12.2678 4.3681 12.3633 4.39441 12.4063 4.41412L12.4328 4.47147C12.6066 4.52468 12.9503 4.43452 13.1454 4.3986C14.2102 4.20241 15.241 4.14274 16.3245 4.15348C17.691 4.1654 19.0512 4.33814 20.376 4.66816C20.7195 4.75482 21.9056 5.1342 22.1366 5.15085L22.2901 5.21944C22.4249 5.34582 22.6045 5.37587 22.7782 5.4412C23.5595 5.73495 24.2728 6.12709 24.9899 6.54722C30.5385 9.57861 33.5201 16.9109 31.4645 22.8393C31.2377 23.4936 30.9394 24.0432 30.6754 24.6704C30.5814 24.7456 30.1726 25.5178 30.0906 25.6677C30.4702 25.3329 30.9073 24.828 31.2288 24.4397C31.5325 24.1946 31.7073 24.0847 32.0736 23.957C32.2806 23.9067 32.4931 23.9081 32.7076 23.8988C33.2371 24.3391 33.2236 24.5274 33.3271 25.174C33.4566 25.0994 33.6536 24.9863 33.7386 24.8699C34.7881 23.4247 35.3641 21.6631 36.4306 20.2322C36.6366 19.9559 37.0646 19.6018 37.4231 19.5623C37.5546 19.5478 37.7256 19.6024 37.9091 19.5826C37.9391 19.3858 37.7736 19.0511 37.7436 18.8586C37.6261 18.1005 37.2806 18.2343 36.7196 17.8758C36.6806 17.7171 36.7796 16.5009 36.7951 16.2384C36.8006 15.9444 36.7436 15.4735 36.7281 15.1556C36.6896 14.1931 36.6311 13.2315 36.5521 12.2714C36.4976 11.5636 36.2871 10.4172 36.7181 9.8425C36.8016 9.76012 36.9071 9.68671 37.0016 9.61467C37.4231 10.7942 37.7551 10.4631 38.8771 10.7219C39.8951 10.9566 44.9301 10.96 45.4336 10.1997L45.4226 10.0838L45.3456 10.0506L45.3061 10.0751C45.2761 9.96607 45.3016 9.90882 45.3281 9.79904L45.4321 9.44011C45.9456 9.36458 46.7311 9.27018 46.7656 9.95109C46.7906 10.4364 46.8076 10.9159 46.8291 11.401L46.9646 14.1254C47.0111 15.015 47.1996 16.7799 47.1436 17.5522C46.7631 17.8225 46.5181 17.9971 46.0761 18.1822C46.3291 19.5494 46.8431 22.9248 46.6381 24.169C46.4826 25.1134 46.0661 25.9794 45.5151 26.7603C45.0231 27.4577 44.4756 28.1078 44.0331 28.8403C43.2816 30.0859 42.7441 31.4265 41.7701 32.5362C41.3346 33.0329 40.8616 33.5301 40.3366 33.9371C40.0636 34.1489 39.7291 34.3039 39.4796 34.5412C39.3756 34.6401 39.3366 34.7273 39.3051 34.8633C39.3026 34.8758 39.2981 34.8881 39.2956 34.9008C39.2621 35.0609 39.4066 35.3142 39.4811 35.4543C39.7741 36.0054 40.1386 36.5226 40.4521 37.0635C41.1651 38.2936 41.8576 39.5859 42.4231 40.8878C43.9576 44.4229 45.2451 48.4443 44.9461 52.3243L44.8706 52.2883C44.8721 52.4401 44.5516 53.0057 44.3531 52.982L44.4656 52.7864C44.6746 52.5278 44.6901 51.8577 44.5531 51.5956L44.5091 51.2586C43.5951 51.1423 43.4496 51.1295 42.5336 51.2231L42.1171 51.3187C42.0801 51.2699 41.9531 51.1438 41.9041 51.0925C42.7201 49.4784 40.6416 50.1298 39.8636 50.3062C39.9186 50.5254 39.9776 50.7201 39.9821 50.9462L39.9101 50.9196L39.7866 50.383L39.7311 50.3845C39.7021 50.721 39.8806 50.8496 39.8096 51.1605C39.7091 50.8891 39.6701 50.7003 39.6081 50.4161C39.4326 50.4895 38.2741 50.962 38.1506 50.957C38.2656 51.096 38.2296 51.062 38.2546 51.2714C38.2541 51.5931 38.2656 51.7592 38.0811 52.0385L38.1711 52.1538L38.1366 52.2484C38.2976 52.6958 37.2316 55.516 36.9291 56.1161C36.3201 57.3237 35.6286 58.3037 34.7251 59.3285C34.5631 59.5123 33.6416 60.3435 33.5956 60.4243C33.3716 60.9392 32.7341 61.02 32.5231 61.5506L32.4481 61.4772C32.2796 61.5767 32.1976 61.6097 32.0761 61.7634L32.0951 61.8418C32.6156 61.9044 33.1016 61.0505 33.6396 60.8722C34.2381 61.2634 35.1971 61.8718 35.7066 62.3374L35.7841 62.2808C35.6066 61.8457 34.3081 60.8416 33.8361 60.8938C33.7261 60.7963 33.7601 60.8539 33.7241 60.7174C33.8401 60.5795 33.8766 60.5706 34.0551 60.5726L34.0001 60.6844C34.1056 60.846 34.5626 61.0495 34.7686 61.1993C35.7786 61.9354 37.0686 62.7513 37.7726 63.7816C37.8561 63.9037 37.9286 64.2501 37.9611 64.3945C37.6126 65.7947 36.0941 66.7146 34.9431 67.4906C34.4766 67.8054 33.7941 67.9651 33.3801 68.2356L33.3546 68.3883C33.4821 68.5957 33.4926 68.6361 33.7416 68.6529C35.6941 68.747 38.7546 69.5422 39.3516 71.6515C39.5966 72.2496 39.7836 72.9453 39.1341 73.3227C38.7591 73.5405 38.2006 73.7183 37.7731 73.7445C35.7651 73.8671 33.6916 73.7548 31.7013 73.4863C31.0955 73.3601 30.5401 73.0606 29.9651 72.8487C28.3312 72.2471 26.5907 72.0885 24.8926 71.7525C23.9742 71.5711 23.586 71.3642 23.0844 70.5808C23.1694 67.9089 29.8995 65.7499 30.1319 65.1611C29.9976 64.8872 28.6716 64.6595 28.2885 64.3211C26.8801 64.8877 24.7151 65.6725 23.19 65.9189C19.5028 66.4963 15.6424 66.4313 12.0557 65.3405C10.6098 64.9458 8.93167 63.6825 7.40777 64.428C6.89707 64.6778 2.71412 67.1354 2.60637 67.4073L2.66937 67.4502C3.73482 68.3203 2.12862 68.8312 2.02472 69.2397C2.95367 70.3906 3.75287 71.6268 4.76597 72.73C5.08632 73.0788 4.97372 73.9509 4.48002 74.2219C3.78012 74.6057 3.06782 74.8087 2.31982 75.0688C1.66132 75.2999 1.00652 75.5413 0.355623 75.7926C-1.00048 76.3213 -1.62843 76.782 -3.19048 77.218C-3.69723 77.3584 -4.20758 77.4855 -4.72113 77.5998C-5.04438 77.6688 -6.52943 77.8955 -6.70733 77.9999H-9.08873C-9.24783 77.9186 -9.78903 77.8156 -10.0064 77.755C-12.5706 77.0406 -10.4357 74.4298 -9.04178 73.6814C-7.71933 72.7896 -3.58098 71.3573 -2.00843 71.041L-2.03408 70.9021C-2.68613 70.2118 -3.74008 68.8436 -4.21083 68.0262C-4.39163 67.7123 -4.53943 67.3792 -4.47983 67.0107C-4.14743 64.9561 2.01122 60.3154 2.32532 58.8752C2.35142 58.7555 2.34172 58.7033 2.27592 58.6052C2.00512 58.8038 1.63957 58.7698 1.30962 58.7935C-0.295278 58.9087 -1.79563 58.7471 -3.31503 58.2564C-3.37503 57.6676 -3.35268 56.8507 -3.32853 56.2551C-4.08853 56.2674 -4.68143 56.127 -5.37103 55.8289C-5.34073 55.5367 -5.31418 55.1125 -5.22178 54.8454C-4.93133 52.5219 -3.83168 48.2718 -2.36448 46.4705C-2.18393 46.1878 -1.90198 45.9257 -1.65363 45.7021C-2.50593 44.967 -2.61673 43.9711 -2.59208 42.9149C-2.98803 42.6057 -3.45788 42.3012 -3.87283 41.9857C-5.20093 40.9756 -6.23238 39.9908 -7.25028 38.6657C-8.55468 36.9267 -9.73083 34.8058 -9.44688 32.5773C-9.00108 29.026 -5.44273 27.6336 -2.31333 28.9152C-1.81888 29.1177 -1.23113 29.4391 -0.712727 29.558C-0.531327 29.5996 -0.418777 29.5085 -0.279277 29.4014L-0.234077 29.3663C-0.0161773 29.1151 0.409223 28.5932 0.721773 28.5227C1.12002 28.4327 1.51892 29.2522 1.74102 29.412C2.25257 28.5555 2.19242 27.8553 3.27567 27.4551C-1.93253 21.7305 -0.801427 13.349 4.75367 8.28985C4.90437 8.15263 5.47747 7.73847 5.55702 7.63791C5.80192 7.32825 7.20887 6.54505 7.27857 6.39916ZM10.968 41.5696L11.0195 41.5163C10.7966 41.2397 10.7392 41.4397 10.5706 41.1449L10.4764 41.1122C10.5222 41.2921 10.5455 41.4085 10.6299 41.5778L10.7061 41.6019L10.8292 41.4806C10.939 41.5156 10.895 41.4858 10.968 41.5696Z" fill="#FEEA96"/>
<path d="M7.27893 6.39916C6.26618 5.66863 7.36463 5.05005 7.98663 4.70516C8.72043 4.29829 9.34898 4.00735 10.1298 3.70557C10.6237 4.17043 10.5391 4.39239 11.288 4.67629C11.6788 4.61987 11.8852 4.5602 12.2187 4.35273C12.2681 4.3681 12.3637 4.39441 12.4066 4.41412L12.4332 4.47147C12.6069 4.52468 12.9506 4.43452 13.1457 4.3986C14.2105 4.20241 15.2413 4.14274 16.3249 4.15348C17.6914 4.1654 19.0515 4.33814 20.3764 4.66816C20.7198 4.75482 21.9059 5.1342 22.137 5.15085L22.2905 5.21944C22.4253 5.34582 22.6048 5.37587 22.7786 5.4412C23.5599 5.73495 24.2732 6.12709 24.9903 6.54722L24.891 6.83983C25.364 7.17502 25.8324 7.47399 26.2855 7.838C28.9124 9.92912 30.7024 12.8165 31.2657 16.1079C31.7113 18.7113 31.3964 21.4805 30.3822 23.9269C30.0111 24.8218 29.4848 26.3038 28.3913 26.493C27.73 26.6075 27.2097 26.1919 26.7076 25.8329L26.626 25.9274C26.6454 26.004 26.6724 26.0641 26.6581 26.1352C26.4313 26.0264 26.4561 26.0442 26.2286 26.0787C25.8276 25.7713 25.6507 25.8835 25.3519 26.2882C25.3262 26.1823 25.2517 26.0073 25.2098 25.8997C25.1298 26.0398 25.1004 26.1505 24.9754 26.2113C24.2485 25.824 23.7959 25.1594 22.6682 25.459C22.3267 25.5497 21.7948 25.9408 21.61 26.2214L21.5255 26.2855C20.7839 25.923 20.4599 25.3485 19.3484 25.7208C18.2912 26.075 17.9473 26.8843 17.3317 27.5417C17.0974 27.0288 16.9228 26.2911 16.3339 26.1012C15.2936 25.7657 13.9988 26.8765 13.0538 27.2911C10.6693 28.3371 8.49483 28.4176 5.94368 28.2744C5.81608 28.369 5.64013 28.3514 5.48508 28.3058C5.59553 28.371 5.71163 28.4045 5.78863 28.4962C5.59193 28.4657 5.56533 28.4284 5.40453 28.5005C5.41633 28.7592 5.74558 28.9829 5.88168 29.2486L5.69313 29.3345C2.81333 26.1311 2.61883 29.2724 1.85458 29.5478C1.77853 29.5134 1.74413 29.5025 1.67488 29.4544L1.74138 29.412C2.25293 28.5555 2.19278 27.8553 3.27603 27.4551C-1.93217 21.7305 -0.801067 13.349 4.75403 8.28985C4.90473 8.15263 5.47783 7.73847 5.55738 7.63791C5.80228 7.32825 7.20923 6.54505 7.27893 6.39916Z" fill="#ED312B"/>
<path d="M20.737 5.22778C21.2152 5.23227 21.3622 5.25079 21.7616 5.53567C21.9045 5.66934 22.0953 5.85869 22.1976 6.00384C22.5604 6.51812 23.3922 7.89073 22.5294 8.32475C22.5028 8.3381 22.4947 8.35407 22.4772 8.37658L22.2619 8.43058C22.166 8.21434 21.662 6.89119 21.2298 7.37719C20.1767 8.56145 20.3521 10.5184 19.6226 11.8595C19.5064 12.069 18.8257 11.9109 18.6678 12.0337C18.5373 12.1934 18.5724 12.2449 18.5468 12.4789C18.5181 12.2609 18.551 12.1448 18.3375 12.0496C16.6708 12.5397 15.6369 9.06706 14.4823 8.26799C14.2569 8.72522 14.1822 8.93191 14.0368 9.40495C13.9502 9.35583 13.8592 9.33804 13.7612 9.30956C13.7147 9.19614 13.3519 8.98399 13.1648 8.79543C12.8444 7.62906 13.3549 6.26157 14.5796 5.87228C15.1516 5.69048 15.774 5.74561 16.3039 6.02497C17.3287 6.55635 17.7998 7.65414 18.1297 8.67866C18.4232 7.16316 19.1055 5.67787 20.737 5.22778Z" fill="#162736"/>
<path d="M14.4817 8.26782C15.6363 9.06688 16.6702 12.5395 18.3369 12.0494C18.5504 12.1446 18.5175 12.2608 18.5462 12.4787C18.6102 13.6492 18.636 14.1965 18.5535 15.3819C17.3971 15.6451 16.5763 15.9786 16.0277 17.0949C15.5552 16.709 15.1496 16.3358 14.8195 15.8188C13.8183 14.2506 13.6188 11.1593 14.0361 9.40478C14.1815 8.93174 14.2563 8.72505 14.4817 8.26782Z" fill="#FEFDFD"/>
<path d="M15.4312 12.8628C15.692 12.9308 15.8577 13.0991 16.0472 13.2755C15.8724 13.468 15.6439 13.6722 15.6081 13.9213L15.6779 13.9983C15.8943 14.0352 16.0785 13.9542 16.2949 13.8892C16.2926 14.6268 16.2883 15.1043 15.9049 15.7478C15.1281 16.5102 14.6723 15.1917 14.6499 14.5915C14.623 13.8705 14.7433 13.2295 15.4312 12.8628Z" fill="#1C1919"/>
<path d="M7.27893 6.39916C6.26618 5.66863 7.36463 5.05005 7.98663 4.70516C8.72043 4.29829 9.34898 4.00735 10.1298 3.70557C10.6237 4.17043 10.5391 4.39239 11.288 4.67629C11.6788 4.61987 11.8852 4.5602 12.2187 4.35273C12.2681 4.3681 12.3637 4.39441 12.4066 4.41412L12.4332 4.47147C12.6069 4.52468 12.9506 4.43452 13.1457 4.3986C14.2105 4.20241 15.2413 4.14274 16.3249 4.15348C16.5359 4.30582 17.6443 4.29237 18.0357 4.3514C17.6156 4.35086 16.121 4.20748 15.8741 4.42486C11.5712 4.52774 7.38218 6.20174 4.39508 9.28851C1.88028 11.9077 0.518483 15.4005 0.606733 19.0051C0.666033 21.2817 1.16933 23.2805 2.30928 25.2615C3.05013 26.5488 3.87803 27.7386 5.40123 28.1622C5.55013 28.2036 5.82463 28.2239 5.94368 28.2744C5.81608 28.369 5.64013 28.3514 5.48508 28.3058C5.59553 28.371 5.71163 28.4045 5.78863 28.4962C5.59193 28.4657 5.56533 28.4284 5.40453 28.5005C5.41633 28.7592 5.74558 28.9829 5.88168 29.2486L5.69313 29.3345C2.81333 26.1311 2.61883 29.2724 1.85458 29.5478C1.77853 29.5134 1.74413 29.5025 1.67488 29.4544L1.74138 29.412C2.25293 28.5555 2.19278 27.8553 3.27603 27.4551C-1.93217 21.7305 -0.801067 13.349 4.75403 8.28985C4.90473 8.15263 5.47783 7.73847 5.55738 7.63791C5.80228 7.32825 7.20923 6.54505 7.27893 6.39916Z" fill="#241A1B"/>
<path d="M7.27875 6.39916C6.266 5.66863 7.36445 5.05005 7.98645 4.70516C8.72025 4.29829 9.3488 4.00735 10.1296 3.70557C10.6235 4.17043 10.5389 4.39239 11.2878 4.67629L11.162 4.75137C10.815 5.05005 9.16245 5.44184 8.68725 5.74126C8.4957 5.86192 7.7232 6.32624 7.53645 6.31087L7.27875 6.39916Z" fill="#04A86C"/>
<path d="M7.27875 6.39916C6.266 5.66863 7.36445 5.05005 7.98645 4.70516C8.72025 4.29829 9.3488 4.00735 10.1296 3.70557C10.6235 4.17043 10.5389 4.39239 11.2878 4.67629L11.162 4.75137C10.5331 4.60957 10.474 4.53986 10.0565 4.04765C9.4258 4.30095 7.6288 4.97545 7.29875 5.49826C7.2381 5.74032 7.4301 6.08403 7.53645 6.31087L7.27875 6.39916Z" fill="#001B00"/>
<path d="M18.667 12.0337C18.8249 11.9109 19.5056 12.0691 19.6218 11.8595C20.3513 10.5184 20.1759 8.56147 21.229 7.37722C21.6612 6.89122 22.1652 8.21437 22.2611 8.43061C22.9639 10.6647 23.0902 14.0913 21.765 16.1174C21.3678 15.8648 20.6426 15.4624 20.1607 15.4252C20.0054 15.4311 19.6864 15.4238 19.5644 15.4877C19.4512 15.4856 19.3427 15.4383 19.1213 15.4395L19 15.424C18.891 15.4276 18.8984 15.4301 18.8069 15.3717C18.7633 15.1903 18.7832 15.0839 18.797 14.8995C18.8105 14.488 18.742 14.199 18.8012 13.7598C18.821 13.1813 18.776 12.6025 18.667 12.0337Z" fill="#FEFDFD"/>
<path d="M18.9358 13.7068C19.1561 12.8583 19.6518 12.295 20.3153 13.2419C20.062 13.3897 19.9068 13.4727 19.815 13.7698L19.8543 13.8751C20.0492 13.9373 20.1191 13.8769 20.3414 13.8025C20.2881 14.4344 20.2515 14.7998 19.8105 15.2916L19.8186 15.3482C19.9316 15.3733 20.0492 15.3976 20.1613 15.425C20.006 15.4309 19.687 15.4236 19.565 15.4875C19.4519 15.4855 19.3433 15.4381 19.1219 15.4393L19.0007 15.4238C18.8916 15.4274 18.899 15.4299 18.8075 15.3715C18.7639 15.1901 18.7838 15.0837 18.7977 14.8993C18.8112 14.4878 18.7426 14.1988 18.8019 13.7596L18.9358 13.7068Z" fill="#1C1919"/>
<path d="M18.8019 13.7596L18.9358 13.7068C18.9453 13.8986 18.9827 14.5303 18.9383 14.6935C18.8369 14.7627 18.8416 14.7855 18.7977 14.8993C18.8112 14.4878 18.7426 14.1987 18.8019 13.7596Z" fill="#251E19"/>
<path d="M18.7971 14.8995C18.841 14.7856 18.8363 14.7628 18.9377 14.6936C18.9591 14.9147 19.1182 15.3003 19.0001 15.4239C18.891 15.4275 18.8984 15.43 18.8069 15.3717C18.7633 15.1902 18.7832 15.0838 18.7971 14.8995Z" fill="#FEFDFD"/>
<path d="M19.1212 15.4395C19.3426 15.4382 19.4511 15.4856 19.5643 15.4877C20.1263 15.6438 20.543 15.7136 21.0883 15.9652C22.1463 16.4193 22.7542 17.5668 22.1952 18.6341C21.181 20.577 17.0182 20.4811 16.3138 18.3365C15.8602 16.9555 17.2837 15.8447 18.506 15.613C18.7 15.5762 18.9297 15.4978 19.1212 15.4395Z" fill="#BA1228"/>
<path d="M20.356 16.2139C20.7903 16.2175 21.5233 16.346 21.7404 16.7626C21.7258 16.9485 21.7421 16.8814 21.6015 17.0474C21.1373 17.0488 20.4482 16.9703 20.2236 16.4922C20.2295 16.3024 20.2018 16.377 20.356 16.2139Z" fill="#FEFDFD"/>
<path d="M22.2617 8.43046L22.477 8.37646C23.119 10.1944 23.205 13.746 22.3493 15.5262C22.2244 15.79 22.0763 16.0427 21.9067 16.2812L22.3287 16.799C22.3492 16.8426 22.3834 16.9228 22.407 16.9605C23.2041 18.3288 21.8303 19.782 20.5282 20.127C19.4851 20.4264 18.325 20.3941 17.351 19.8793C16.4897 19.4241 16.1773 18.943 15.9077 18.0558C15.4312 17.8384 14.9612 17.6076 14.5292 17.3102C13.4413 16.5612 12.1981 15.0569 11.9639 13.7615C12.7433 15.4292 14.0241 17.0943 15.8972 17.6642C15.9422 17.6779 15.9583 17.6452 15.9971 17.6148C15.9693 17.2708 15.1288 16.6816 14.8973 16.3455C13.5049 14.3239 13.3838 11.6118 13.7611 9.30944C13.8591 9.33792 13.95 9.35571 14.0366 9.40483C13.6193 11.1593 13.8188 14.2506 14.82 15.8189C15.1501 16.3358 15.5557 16.7091 16.0281 17.095C16.5768 15.9786 17.3976 15.6451 18.554 15.3819C18.6365 14.1966 18.6106 13.6492 18.5466 12.4788C18.5722 12.2448 18.5371 12.1933 18.6676 12.0336C18.7766 12.6023 18.8217 13.1812 18.8019 13.7597C18.7426 14.1988 18.8112 14.4879 18.7977 14.8994C18.7838 15.0837 18.7639 15.1902 18.8075 15.3716C18.899 15.4299 18.8916 15.4275 19.0007 15.4239L19.1219 15.4394C18.9305 15.4977 18.7008 15.5762 18.5067 15.6129C17.2845 15.8446 15.861 16.9554 16.3146 18.3364C17.019 20.481 21.1817 20.5769 22.1959 18.634C22.755 17.5667 22.147 16.4192 21.089 15.9651C20.5438 15.7135 20.127 15.6437 19.565 15.4876C19.687 15.4236 20.006 15.4309 20.1613 15.425C20.6433 15.4623 21.3685 15.8647 21.7656 16.1173C23.0909 14.0911 22.9646 10.6646 22.2617 8.43046Z" fill="#0A0605"/>
<path d="M16.3248 4.15356C17.6913 4.16549 19.0515 4.33823 20.3763 4.66824C20.7198 4.75491 21.9059 5.13429 22.1369 5.15094L22.2904 5.21952C22.4252 5.3459 22.6048 5.37596 22.7785 5.44129C23.5598 5.73504 24.2731 6.12718 24.9902 6.5473L24.8909 6.83992C23.7947 6.18807 23.0795 5.82914 21.8911 5.39029L21.7611 5.53559C21.3617 5.25071 21.2147 5.23219 20.7365 5.2277L20.9545 5.14912L20.7876 5.0185C18.9632 4.56876 17.7362 4.4246 15.874 4.42494C16.1209 4.20756 17.6156 4.35094 18.0357 4.35148C17.6442 4.29246 16.5358 4.30591 16.3248 4.15356Z" fill="#0A0605"/>
<path d="M20.7875 5.01855C21.156 5.0966 21.5552 5.22041 21.8909 5.39035L21.7609 5.53564C21.3615 5.25076 21.2145 5.23224 20.7363 5.22776L20.9544 5.14917L20.7875 5.01855Z" fill="#955741"/>
<path d="M25.21 25.8997C25.6191 25.2681 26.2214 25.3609 26.7078 25.8328L26.6261 25.9273C26.6455 26.004 26.6725 26.0641 26.6583 26.1352C26.4314 26.0264 26.4563 26.0442 26.2287 26.0787C25.8277 25.7712 25.6508 25.8834 25.3521 26.2882C25.3263 26.1823 25.2518 26.0072 25.21 25.8997Z" fill="#2A0D14"/>
<path d="M22.3281 16.7991C23.3436 16.3842 24.0422 15.1991 24.7055 14.4248C24.2719 15.343 23.4189 16.6451 22.4064 16.9607C22.3828 16.9229 22.3486 16.8428 22.3281 16.7991Z" fill="#1C1919"/>
<path d="M4.50065 14.4579C5.1325 14.3894 5.96125 14.7878 6.32335 15.2973C7.91975 17.5429 6.17736 21.3451 3.43475 21.7059C-0.642645 21.6743 0.599305 14.9384 4.50065 14.4579Z" fill="#BA1228"/>
<path d="M28.0544 15.6296C31.3496 15.4303 32.3282 21.7866 28.6667 22.5716C25.3503 22.6927 24.3901 16.483 28.0544 15.6296Z" fill="#BA1228"/>
<path d="M7.04742 7.69047C7.86057 7.63543 7.70277 8.29944 7.45582 8.78796C6.79877 10.0877 5.61227 11.3387 4.21272 11.846C4.07597 11.876 3.88152 11.8312 3.75752 11.7764C3.36947 11.6048 3.78202 10.7282 3.89742 10.5216C4.54727 9.35885 5.76292 8.12616 7.04742 7.69047Z" fill="#FEFDFD"/>
<path d="M6.24715 20.7531C10.7963 18.756 15.9702 19.8689 20.4583 21.5176L20.3845 21.6138C20.204 21.5427 19.9345 21.4663 19.7444 21.4064C15.6933 20.1309 9.9359 19.2552 5.99135 21.2952C5.72665 21.7626 5.6719 22.1119 5.5531 22.6302C5.2465 21.7788 5.29355 21.2221 5.9376 20.5611C6.17445 20.6398 6.133 20.5866 6.24715 20.7531Z" fill="#2A0D14"/>
<path d="M15.9632 21.6039C16.4786 21.5371 17.104 21.59 17.5812 21.7978L17.5884 21.8427C17.2354 21.9116 16.6341 21.8069 16.2309 21.84C15.2466 21.9205 14.3517 22.1626 13.4102 22.429C13.2248 22.4978 12.2608 22.8864 12.1512 22.9119L12.1367 22.8698C12.526 22.3331 15.2236 21.6776 15.9632 21.6039Z" fill="#0A0605"/>
<path d="M23.4829 21.6714C23.5152 21.8357 23.4261 22.3586 23.3376 22.5255C23.1711 22.8396 23.0931 22.8447 22.7796 22.9459C22.7574 22.6938 23.0387 22.4601 23.1665 22.2246C23.2662 22.0408 23.3807 21.8559 23.4829 21.6714Z" fill="#0A0605"/>
<path d="M5.9375 20.5611C6.21425 20.3547 6.3749 20.2433 6.67485 20.0735L6.72725 20.0883C6.56795 20.4108 6.3331 20.4794 6.24705 20.7531C6.1329 20.5866 6.17435 20.6398 5.9375 20.5611Z" fill="#4D1204"/>
<path d="M20.4576 21.5176C20.751 21.6365 20.9245 21.7197 21.2025 21.8707C20.9322 21.7889 20.6487 21.7078 20.3838 21.6138L20.4576 21.5176Z" fill="#4D1204"/>
<path d="M5.94367 28.2744C8.49482 28.4176 10.6693 28.3372 13.0538 27.2912C13.9988 26.8766 15.2936 25.7658 16.3339 26.1013C16.9228 26.2912 17.0974 27.0289 17.3317 27.5418L17.4409 27.6929L17.4671 27.7976C17.4296 27.9473 17.4134 27.8875 17.4722 27.9914C17.3513 28.1878 17.3948 28.7167 17.3964 28.9748C17.4001 29.5971 17.4176 30.1911 17.3838 30.8156C17.3676 31.1159 17.244 31.595 17.245 31.8313L17.2604 31.8533C17.23 32.0027 17.2188 31.9353 17.2834 32.0638C17.0826 32.2014 16.731 32.9421 16.654 33.1928C16.7157 33.287 16.7094 33.2581 16.8604 33.2948C16.6725 33.319 16.6569 33.2866 16.5609 33.3908L16.5507 33.4527C16.3441 33.5001 16.1559 33.7142 16.0099 33.8692C16.3089 33.9264 16.6072 33.9878 16.9045 34.0532C16.724 34.0518 16.644 34.0198 16.5138 34.1052L16.4947 34.1845L15.844 34.107C15.3345 34.4546 14.7638 34.888 14.2152 35.1597C12.6624 35.9287 11.2278 36.592 9.76912 37.5433C9.55752 37.7049 8.44502 38.5432 8.34732 38.6984C9.12417 39.0135 10.1007 40.359 10.4767 41.1123C10.5225 41.2921 10.5458 41.4085 10.6302 41.5779L10.7064 41.602L10.8296 41.4807C10.9393 41.5156 10.8954 41.4858 10.9684 41.5696C9.58077 43.4387 10.7515 44.5294 9.49792 46.202C9.37322 46.3686 8.98402 46.6578 8.80177 46.8012C8.78257 46.6844 8.74297 46.5736 8.70767 46.4597C8.23382 46.58 7.98267 46.6647 7.65672 47.0293C7.52127 47.1806 7.35917 47.352 7.23172 47.5062L7.23392 47.7112L7.22337 47.7408L7.31657 47.9004L7.09777 48.0881L6.97022 47.9669C6.52922 48.2808 6.27032 48.4296 5.75177 48.6429C5.33562 48.8474 4.27972 49.5347 4.03542 49.6239C4.30292 49.2405 5.12467 48.7927 5.55242 48.5626C5.45602 48.5286 5.34072 48.5256 5.23777 48.5099C4.42197 48.3823 4.13772 47.9019 3.68612 47.2894C3.59162 47.5747 3.55337 47.9644 3.47157 48.2763L3.42122 48.2005C3.27902 48.8888 2.80012 53.5142 2.76202 53.564C2.80072 53.5709 2.86347 53.5847 2.89982 53.5842C2.88927 55.3264 2.58312 57.0671 3.13122 58.792C3.03462 58.8108 2.93752 58.8167 2.86312 58.8748C2.72587 58.9443 2.65387 59.2911 2.53657 59.5124C2.21007 60.1278 1.96887 60.3332 1.53162 60.7988C0.0609703 62.3656 -3.10048 65.2789 -4.00223 67.1093C-3.77183 68.0523 -2.27113 70.1148 -1.64673 70.9337L-2.03373 70.9021C-2.68578 70.2119 -3.73973 68.8436 -4.21048 68.0262C-4.39128 67.7124 -4.53908 67.3793 -4.47948 67.0108C-4.14708 64.9562 2.01157 60.3155 2.32567 58.8753C2.35177 58.7556 2.34207 58.7034 2.27627 58.6053C2.00547 58.8039 1.63992 58.7699 1.30997 58.7935C-0.29493 58.9088 -1.79528 58.7472 -3.31468 58.2565C-3.37468 57.6677 -3.35233 56.8508 -3.32818 56.2551C-4.08818 56.2674 -4.68108 56.127 -5.37068 55.8289C-5.34038 55.5368 -5.31383 55.1126 -5.22143 54.8455C-4.93098 52.5219 -3.83133 48.2719 -2.36413 46.4706C-2.18358 46.1879 -1.90163 45.9258 -1.65328 45.7022C-2.50558 44.9671 -2.61638 43.9712 -2.59173 42.915C-2.98768 42.6058 -3.45753 42.3013 -3.87248 41.9857C-5.20058 40.9757 -6.23203 39.9909 -7.24993 38.6658C-8.55433 36.9267 -9.73048 34.8058 -9.44653 32.5774C-9.00073 29.0261 -5.44238 27.6337 -2.31298 28.9153C-1.81853 29.1178 -1.23078 29.4391 -0.71238 29.558C-0.53098 29.5996 -0.41843 29.5086 -0.27893 29.4015L-0.23373 29.3663C-0.0158301 29.1151 0.40957 28.5933 0.72212 28.5227C1.12037 28.4328 1.51927 29.2523 1.74137 29.4121L1.67487 29.4544C1.74412 29.5026 1.77852 29.5134 1.85457 29.5479C2.61882 29.2725 2.81332 26.1312 5.69312 29.3346L5.88167 29.2486C5.74557 28.983 5.41632 28.7592 5.40452 28.5006C5.56532 28.4285 5.59192 28.4657 5.78862 28.4962C5.71162 28.4045 5.59552 28.3711 5.48507 28.3059C5.64012 28.3515 5.81607 28.369 5.94367 28.2744Z" fill="#13496D"/>
<path d="M4.42663 29.5154C5.57248 30.6719 6.21358 32.2244 6.21283 33.8407C6.20483 34.6913 6.22583 35.0958 6.48388 35.9242C6.59168 36.0218 6.53718 35.9968 6.71548 35.9927C7.43748 35.6678 7.54144 33.2938 7.49104 32.5788L7.52933 32.5269C8.07108 32.9023 7.14593 35.8686 7.56508 36.3434L7.68338 36.3605C8.22403 35.8004 9.40158 34.188 10.2799 34.0766L10.3168 34.1127C9.58343 34.6922 7.78943 36.0489 7.93128 37.0899C7.96188 37.2683 8.00658 37.4819 8.01233 37.6595L7.94868 37.727C7.97158 37.8848 8.02558 38.1854 8.02173 38.3336C8.01188 38.7157 8.18738 38.5597 8.34788 38.6983C9.12473 39.0134 10.1013 40.3589 10.4773 41.1122C10.5231 41.2921 10.5464 41.4084 10.6308 41.5778L10.707 41.6019L10.8301 41.4806C10.9399 41.5156 10.8959 41.4857 10.9689 41.5696C9.58133 43.4386 10.7521 44.5293 9.49848 46.2019C9.37378 46.3685 8.98458 46.6577 8.80233 46.8011C8.78313 46.6843 8.74353 46.5735 8.70823 46.4597C8.23438 46.5799 7.98323 46.6646 7.65728 47.0292C7.52183 47.1805 7.35973 47.3519 7.23228 47.5062L7.23448 47.7111L7.22393 47.7407L7.31713 47.9003L7.09833 48.088L6.97078 47.9668C6.52978 48.2807 6.27088 48.4295 5.75233 48.6428C5.33618 48.8473 4.28028 49.5346 4.03598 49.6238C4.30348 49.2405 5.12523 48.7926 5.55298 48.5625C5.45658 48.5285 5.34128 48.5255 5.23833 48.5098C4.42253 48.3822 4.13828 47.9018 3.68668 47.2894C3.59218 47.5746 3.55393 47.9644 3.47213 48.2762L3.42178 48.2004C3.27958 48.8887 2.80068 53.5141 2.76258 53.5639C2.80128 53.5708 2.86403 53.5846 2.90038 53.5841C2.88983 55.3263 2.58368 57.067 3.13178 58.792C3.03518 58.8107 2.93808 58.8166 2.86368 58.8747C2.72643 58.9442 2.65443 59.2911 2.53713 59.5123C2.21063 60.1277 1.96943 60.3331 1.53218 60.7987C0.0615336 62.3655 -3.09992 65.2789 -4.00167 67.1092C-3.77127 68.0523 -2.27057 70.1147 -1.64617 70.9336L-2.03317 70.902C-2.68522 70.2118 -3.73917 68.8435 -4.20992 68.0262C-4.39072 67.7123 -4.53852 67.3792 -4.47892 67.0107C-4.14652 64.9561 2.01213 60.3154 2.32623 58.8752C2.35233 58.7555 2.34263 58.7033 2.27683 58.6052C2.00603 58.8038 1.64048 58.7698 1.31053 58.7934C-0.294367 58.9087 -1.79472 58.7471 -3.31412 58.2564C-3.37412 57.6676 -3.35177 56.8507 -3.32762 56.255C-4.08762 56.2674 -4.68052 56.1269 -5.37012 55.8289C-5.33982 55.5367 -5.31327 55.1125 -5.22087 54.8454C-4.93042 52.5218 -3.83077 48.2718 -2.36357 46.4705C-2.18302 46.1878 -1.90107 45.9257 -1.65272 45.7021C-1.52687 45.7837 -1.51742 45.7626 -1.45752 45.8762C-1.09322 46.0095 0.217933 46.468 0.329583 46.8006C0.454083 46.8499 0.416184 46.808 0.475534 46.9011C0.747784 47.182 0.873334 47.4988 1.17118 47.7875C1.04768 48.426 0.798633 49.5371 0.739233 50.1559C0.883133 50.011 1.23628 48.1679 1.33833 47.7865L1.33133 47.7062C1.40633 47.5732 1.40873 47.5535 1.53228 47.4712C1.05673 47.1554 1.04218 46.6617 0.631083 46.3212C0.350433 46.0889 -0.819117 45.8054 -0.966567 45.511L-0.893866 45.3626C1.62418 44.4783 3.81803 42.2308 4.74338 39.7658C5.31178 38.2517 5.60393 34.4591 3.69503 33.8112C3.51373 33.6698 3.57218 33.7438 3.48703 33.5103C3.38688 33.4578 3.12403 33.4187 2.99828 33.394C4.21578 32.9591 4.86783 32.7995 5.85668 33.7643C5.85403 32.598 5.61103 31.6196 5.04953 30.5839C4.85938 30.2332 4.59838 29.861 4.42663 29.5154Z" fill="#1C1919"/>
<path d="M5.94395 28.2744C8.4951 28.4176 10.6696 28.3372 13.0541 27.2912C13.9991 26.8766 15.2939 25.7658 16.3342 26.1013C16.9231 26.2912 17.0977 27.0289 17.332 27.5418L17.4412 27.6929L17.4674 27.7976C17.4299 27.9473 17.4137 27.8875 17.4725 27.9914C17.3516 28.1878 17.3951 28.7167 17.3967 28.9748C17.4004 29.5971 17.4179 30.1911 17.3841 30.8156C17.3679 31.1159 17.2443 31.595 17.2453 31.8313L17.2607 31.8533C17.2303 32.0027 17.2191 31.9353 17.2837 32.0638C17.0829 32.2014 16.7313 32.9421 16.6543 33.1928C16.716 33.287 16.7097 33.2581 16.8607 33.2948C16.6728 33.319 16.6572 33.2866 16.5612 33.3908L16.551 33.4527C16.3444 33.5001 16.1562 33.7142 16.0102 33.8692C16.3092 33.9264 16.6075 33.9878 16.9048 34.0532C16.7243 34.0518 16.6443 34.0198 16.5141 34.1052L16.495 34.1845L15.8443 34.107C15.3348 34.4546 14.7641 34.888 14.2155 35.1597C12.6627 35.9287 11.2281 36.592 9.7694 37.5433C9.5578 37.7049 8.4453 38.5432 8.3476 38.6984C8.1871 38.5598 8.0116 38.7158 8.02145 38.3337C8.0253 38.1855 7.9713 37.8849 7.9484 37.7271L8.01205 37.6596C8.0063 37.4819 7.9616 37.2684 7.931 37.0899C8.4173 36.8907 9.53345 35.9913 10.0646 35.6642C12.8482 33.9499 16.1965 33.019 15.9667 29.1123L15.9142 29.1293L15.8732 29.1068L15.8641 28.8174C15.6334 29.0236 15.6076 29.8531 15.4706 30.1817C14.8181 31.7461 13.7045 33.3632 11.7347 32.9019C10.0426 32.5112 8.8612 31.2679 7.764 30.0289C7.4045 29.6229 7.10345 29.1498 6.7185 28.7633L6.6747 28.7199C6.37975 28.6229 6.10095 28.6057 5.7889 28.4962C5.7119 28.4045 5.5958 28.3711 5.48535 28.3059C5.6404 28.3515 5.81635 28.369 5.94395 28.2744Z" fill="#251E19"/>
<path d="M15.7872 26.551C16.1609 26.6797 16.5177 26.8158 16.6829 27.2108C17.1746 28.3862 17.1093 30.8437 16.7153 31.9722C15.6654 34.9789 11.78 35.314 9.64241 37.2684C9.76226 37.3943 9.72501 37.3532 9.76906 37.5435C9.55746 37.7051 8.44496 38.5434 8.34726 38.6986C8.18676 38.5599 8.01126 38.716 8.02111 38.3339C8.02496 38.1856 7.97096 37.8851 7.94806 37.7272L8.01171 37.6598C8.00596 37.4821 7.96126 37.2685 7.93066 37.0901C8.41696 36.8908 9.53311 35.9915 10.0643 35.6644C12.8479 33.95 16.1962 33.0192 15.9663 29.1125C15.9252 28.3549 15.7863 27.2488 15.7872 26.551Z" fill="#F7AC1D"/>
<path d="M14.516 27.2109C14.738 26.9672 15.0931 26.8574 15.4004 26.7429C15.4842 28.4104 15.3085 30.3491 14.1234 31.6273C11.8818 34.0448 8.79217 30.3733 7.49707 28.7382C7.93582 28.7759 8.56912 28.7288 8.85917 28.7617C9.05802 28.6953 9.84907 28.6571 10.1206 28.6295C10.6188 28.5799 11.1122 28.4921 11.5965 28.3669C12.4537 28.1492 13.2061 27.8086 13.9948 27.4229C14.1708 27.3369 14.3276 27.2673 14.516 27.2109Z" fill="#F7AC1D"/>
<path d="M14.5152 27.2109C14.5015 27.896 14.4489 28.3595 14.2541 29.0072C13.2493 32.3468 10.899 30.9111 9.1593 29.1124C9.04705 28.9963 8.94925 28.8965 8.8584 28.7617C9.05725 28.6953 9.8483 28.6572 10.1198 28.6296C10.618 28.58 11.1114 28.4922 11.5957 28.367C12.4529 28.1492 13.2053 27.8087 13.994 27.423C14.17 27.3369 14.3268 27.2674 14.5152 27.2109Z" fill="#13496D"/>
<path d="M-2.59173 42.9149C-2.98768 42.6058 -3.45753 42.3013 -3.87248 41.9857C-5.20058 40.9757 -6.23203 39.9909 -7.24993 38.6658C-8.55433 36.9267 -9.73048 34.8058 -9.44653 32.5773C-9.00073 29.0261 -5.44238 27.6337 -2.31298 28.9153C-1.81853 29.1178 -1.23078 29.4391 -0.712379 29.558C-0.530979 29.5996 -0.418428 29.5086 -0.278928 29.4015L-0.233729 29.3663C0.0423713 29.3123 0.255121 28.973 0.516871 28.8218C0.405671 28.933 -0.00362777 29.3118 -0.0353278 29.4217L0.0253213 29.4284C-0.106729 29.623 -0.271079 29.9539 -0.516129 30.003C-1.67838 30.2363 -3.72138 27.8536 -6.56618 29.4238C-7.21608 29.7826 -7.82953 30.3068 -8.25808 30.9093C-8.89798 31.8089 -9.07003 32.9702 -8.87248 34.0382C-8.30558 37.1035 -5.66793 40.0188 -3.13013 41.7188C-2.21768 42.33 -1.20373 42.7693 -0.288128 43.3639C0.446672 42.9873 0.834072 42.5268 1.38292 41.9334C1.43437 41.8778 1.77097 41.4999 1.80472 41.4726C2.23012 41.2952 2.79202 40.072 2.99182 39.6258C3.43217 38.6424 3.43117 38.1024 3.53682 37.0858C3.63147 38.0157 3.52217 38.4759 3.23587 39.3569C2.90017 40.39 2.42847 40.964 1.80552 41.8356L1.88112 41.8544C1.40952 42.4547 -0.661679 44.5227 -1.43808 44.0911C-1.56468 43.9294 -1.61738 43.6236 -1.66763 43.4149C-1.89753 43.2896 -2.00623 43.2318 -2.25168 43.1409C-2.20868 43.8599 -1.92668 45.4958 -0.894428 45.3627L-0.967129 45.511C-0.819679 45.8055 0.349872 46.089 0.630522 46.3213C1.04162 46.6617 1.05617 47.1554 1.53172 47.4712C1.40817 47.5535 1.40577 47.5732 1.33077 47.7063L1.33777 47.7866C1.23572 48.1679 0.882571 50.0111 0.738671 50.156C0.798071 49.5371 1.04712 48.4261 1.17062 47.7876C0.872772 47.4988 0.747222 47.182 0.474972 46.9012C0.415622 46.8081 0.453522 46.85 0.329022 46.8007C0.217372 46.4681 -1.09378 46.0096 -1.45808 45.8763C-1.51798 45.7627 -1.52743 45.7837 -1.65328 45.7022C-2.50558 44.9671 -2.61638 43.9712 -2.59173 42.9149Z" fill="#1C1919"/>
<path d="M-2.94434 30.8733C-1.66439 31.5509 -0.517436 32.691 0.624864 33.3661L0.665263 33.1094L0.717613 33.4026L0.756264 33.4097C0.809764 33.2074 0.763164 32.6319 0.749214 32.398C0.872664 32.8392 0.913014 33.1408 0.893814 33.5999C1.17886 33.913 1.35026 34.0507 1.67616 34.3151C2.05771 34.0159 2.56701 33.5823 2.99741 33.3941C3.12316 33.4188 3.38601 33.4579 3.48616 33.5105C3.57131 33.7439 3.51286 33.67 3.69416 33.8113C2.98401 33.757 2.57211 34.1469 1.98381 34.5433C2.12241 34.6826 2.29781 34.8898 2.48436 34.9401C2.50811 34.972 2.59021 35.0863 2.61256 35.1073C3.02711 35.2358 3.08071 35.3543 3.22906 35.768C3.33256 35.8208 3.42531 35.8663 3.53126 35.9141C3.86746 37.9527 3.54211 39.6427 2.30271 41.3328C2.17131 41.5138 2.03051 41.6879 1.88081 41.8545L1.80521 41.8357C2.42816 40.964 2.89986 40.3901 3.23556 39.357C3.52186 38.476 3.63116 38.0157 3.53651 37.0859C3.43086 38.1025 3.43186 38.6424 2.99151 39.6259C2.79171 40.0721 2.22981 41.2953 1.80441 41.4726C2.79511 40.2573 3.48351 38.5312 3.43821 36.9585C2.18801 35.2352 0.886914 34.0527 -0.742487 32.6695C-1.25344 32.2357 -2.65484 31.2613 -2.94434 30.8733Z" fill="#171616"/>
<path d="M-0.233398 29.3663C-0.0154984 29.1152 0.409902 28.5933 0.722452 28.5227C1.1207 28.4328 1.5196 29.2523 1.7417 29.4121L1.6752 29.4544C1.4416 29.2722 1.0803 28.9729 0.834552 28.8317C0.510102 29.0174 0.285252 29.1554 0.0256516 29.4284L-0.0349976 29.4218C-0.00329755 29.3118 0.406001 28.9331 0.517201 28.8218C0.255451 28.973 0.0427016 29.3123 -0.233398 29.3663Z" fill="#251E19"/>
<path d="M0.625328 33.3661C0.585528 32.7978 0.543227 32.2999 0.373477 31.748C0.297477 31.5007 0.0995284 31.2124 0.127728 31.0439L0.197278 31.0805C0.461078 31.5624 0.602378 31.8722 0.749678 32.398C0.763628 32.6319 0.810228 33.2074 0.756728 33.4097L0.718077 33.4026L0.665727 33.1094L0.625328 33.3661Z" fill="#0A1219"/>
<path d="M5.88191 29.2485C6.21191 29.7303 6.55386 30.2034 6.80641 30.7297C6.40686 30.3324 6.05301 29.7799 5.69336 29.3345L5.88191 29.2485Z" fill="#0A0605"/>
<path d="M24.9907 6.54736C30.5392 9.57875 33.5208 16.911 31.4653 22.8394C31.2384 23.4937 30.9402 24.0433 30.6761 24.6706C30.5821 24.7457 30.1734 25.518 30.0914 25.6678C30.4709 25.333 30.908 24.8281 31.2295 24.4399C31.5332 24.1948 31.7081 24.0848 32.0743 23.9571C32.2813 23.9068 32.4938 23.9083 32.7083 23.8989C33.2378 24.3392 33.2243 24.5275 33.3278 25.1742C33.4573 25.0995 33.6543 24.9864 33.7393 24.87C34.7888 23.4249 35.3648 21.6633 36.4313 20.2324C36.6373 19.956 37.0653 19.602 37.4238 19.5624C37.5553 19.5479 37.7263 19.6026 37.9098 19.5827C37.9398 19.386 37.7743 19.0513 37.7443 18.8587C37.6268 18.1007 37.2813 18.2344 36.7203 17.876C36.6813 17.7172 36.7803 16.501 36.7958 16.2385C36.8013 15.9445 36.7443 15.4737 36.7288 15.1557C36.6903 14.1932 36.6318 13.2316 36.5528 12.2716C36.4983 11.5637 36.2878 10.4173 36.7188 9.84265C36.8023 9.76027 36.9078 9.68685 37.0023 9.61482C37.4238 10.7943 37.7558 10.4632 38.8778 10.722C39.8958 10.9568 44.9308 10.9602 45.4343 10.1998L45.4233 10.0839L45.3463 10.0508L45.3068 10.0752C45.2768 9.96621 45.3023 9.90896 45.3288 9.79919L45.4328 9.44026C45.9463 9.36473 46.7318 9.27032 46.7663 9.95124C46.7913 10.4366 46.8083 10.9161 46.8298 11.4012L46.9653 14.1255C47.0118 15.0151 47.2003 16.78 47.1443 17.5524C46.7638 17.8227 46.5188 17.9972 46.0768 18.1823C46.3298 19.5495 46.8438 22.9249 46.6388 24.1692C46.4833 25.1136 46.0668 25.9796 45.5158 26.7604C45.0238 27.4578 44.4763 28.1079 44.0338 28.8404C43.2823 30.0861 42.7448 31.4267 41.7708 32.5364C41.3353 33.0331 40.8623 33.5302 40.3373 33.9373C40.0643 34.149 39.7298 34.3041 39.4803 34.5414C39.3763 34.6403 39.3373 34.7274 39.3058 34.8635C39.3033 34.876 39.2988 34.8883 39.2963 34.9009C39.2628 35.061 39.4073 35.3144 39.4818 35.4545C39.7748 36.0055 40.1393 36.5228 40.4528 37.0636C41.1658 38.2937 41.8583 39.5861 42.4238 40.888C43.9583 44.423 45.2458 48.4444 44.9468 52.3244L44.8713 52.2885C44.8728 52.4402 44.5523 53.0058 44.3538 52.9822L44.4663 52.7866C44.6753 52.5279 44.6908 51.8578 44.5538 51.5957L44.5098 51.2587C43.5958 51.1424 43.4503 51.1296 42.5343 51.2233L42.1178 51.3188C42.0808 51.2701 41.9538 51.1439 41.9048 51.0927C42.7208 49.4786 40.6423 50.1299 39.8643 50.3063C39.9193 50.5256 39.9783 50.7202 39.9828 50.9464L39.9108 50.9197L39.7873 50.3832L39.7318 50.3847C39.7028 50.7212 39.8813 50.8498 39.8103 51.1607C39.7098 50.8892 39.6708 50.7005 39.6088 50.4162C39.4333 50.4896 38.2748 50.9621 38.1513 50.9572C37.9188 51.0651 37.6853 51.1794 37.4533 51.2903C37.5078 48.3365 36.0828 42.9547 34.8563 40.2371C33.8023 37.8418 32.2928 35.6677 30.4086 33.8323C30.1493 33.5761 29.5974 33.017 29.2704 32.8928L29.1963 32.7452C28.9938 32.5127 28.9727 32.4177 28.65 32.4595L28.5502 32.3537L28.6014 32.2757C28.557 31.808 27.4884 31.6596 27.1238 31.6131C27.2227 31.5724 27.393 31.5722 27.5097 31.5562L27.5036 31.4478C27.6007 31.4732 27.6706 31.472 27.7697 31.4764L27.7798 31.4171C27.4947 31.1063 25.8354 29.1103 25.6627 28.9974L25.667 28.863C25.2065 28.0994 24.8642 27.4403 24.9514 26.5367C23.8199 25.4301 22.9585 25.2167 21.7464 26.2889C21.738 26.2935 21.7296 26.2981 21.7213 26.3026L21.6104 26.2215C21.7952 25.941 22.3271 25.5499 22.6686 25.4592C23.7963 25.1596 24.2489 25.8241 24.9758 26.2114C25.1008 26.1506 25.1302 26.0399 25.2102 25.8999C25.2521 26.0074 25.3266 26.1824 25.3523 26.2884C25.6511 25.8836 25.828 25.7714 26.229 26.0789C26.4565 26.0444 26.4317 26.0265 26.6585 26.1354C26.6728 26.0643 26.6458 26.0042 26.6264 25.9275L26.708 25.833C27.2101 26.1921 27.7304 26.6076 28.3917 26.4932C29.4852 26.304 30.0115 24.822 30.3826 23.9271C31.3968 21.4807 31.7117 18.7115 31.2661 16.108C30.7028 12.8167 28.9128 9.92926 26.2859 7.83814C25.8328 7.47413 25.3644 7.17516 24.8914 6.83998L24.9907 6.54736Z" fill="#13496D"/>
<path d="M24.9907 6.54736C30.5392 9.57875 33.5208 16.911 31.4653 22.8394C31.2384 23.4937 30.9402 24.0433 30.6761 24.6706C30.5821 24.7457 30.1734 25.518 30.0914 25.6678C30.4709 25.333 30.908 24.8281 31.2295 24.4399C31.5332 24.1948 31.7081 24.0848 32.0743 23.9571C32.2288 23.9828 32.4043 24.0165 32.5583 24.0305C32.3558 24.0446 32.2783 24.015 32.1368 24.1184L32.1533 24.1477C31.8871 24.4509 31.5663 24.4727 31.1989 24.9851C31.1313 26.6331 32.8613 31.9289 29.518 30.8927C29.272 30.8164 29.2228 30.8158 28.9822 30.8948C30.4227 32.0482 31.8086 33.0972 33.0618 34.4579C36.5743 38.2717 38.0498 43.9952 39.2323 48.9085C40.3633 48.4661 40.6243 48.4735 41.7758 48.5395C41.4753 46.6919 40.6378 45.0699 40.0043 43.39C39.7448 42.7015 37.2643 37.7321 37.2818 37.602C37.4738 37.7771 38.2008 39.1932 38.3698 39.5277C39.9443 42.6447 42.1428 46.4593 42.4528 49.957C42.4808 50.2753 42.2438 50.8636 42.2938 51.1222C42.4098 51.2262 42.3613 51.1947 42.5343 51.2233L42.1178 51.3188C42.0808 51.2701 41.9538 51.1439 41.9048 51.0927C42.7208 49.4786 40.6423 50.1299 39.8643 50.3063C39.9193 50.5256 39.9783 50.7202 39.9828 50.9464L39.9108 50.9197L39.7873 50.3832L39.7318 50.3847C39.7028 50.7212 39.8813 50.8498 39.8103 51.1607C39.7098 50.8892 39.6708 50.7005 39.6088 50.4162C39.4333 50.4896 38.2748 50.9621 38.1513 50.9572C37.9188 51.0651 37.6853 51.1794 37.4533 51.2903C37.5078 48.3365 36.0828 42.9547 34.8563 40.2371C33.8023 37.8418 32.2928 35.6677 30.4086 33.8323C30.1493 33.5761 29.5974 33.017 29.2704 32.8928L29.1963 32.7452C28.9938 32.5127 28.9727 32.4177 28.65 32.4595L28.5502 32.3537L28.6014 32.2757C28.557 31.808 27.4884 31.6596 27.1238 31.6131C27.2227 31.5724 27.393 31.5722 27.5097 31.5562L27.5036 31.4478C27.6007 31.4732 27.6706 31.472 27.7697 31.4764L27.7798 31.4171C27.4947 31.1063 25.8354 29.1103 25.6627 28.9974L25.667 28.863C25.2065 28.0994 24.8642 27.4403 24.9514 26.5367C23.8199 25.4301 22.9585 25.2167 21.7464 26.2889C21.738 26.2935 21.7296 26.2981 21.7213 26.3026L21.6104 26.2215C21.7952 25.941 22.3271 25.5499 22.6686 25.4592C23.7963 25.1596 24.2489 25.8241 24.9758 26.2114C25.1008 26.1506 25.1302 26.0399 25.2102 25.8999C25.2521 26.0074 25.3266 26.1824 25.3523 26.2884C25.6511 25.8836 25.828 25.7714 26.229 26.0789C26.4565 26.0444 26.4317 26.0265 26.6585 26.1354C26.6728 26.0643 26.6458 26.0042 26.6264 25.9275L26.708 25.833C27.2101 26.1921 27.7304 26.6076 28.3917 26.4932C29.4852 26.304 30.0115 24.822 30.3826 23.9271C31.3968 21.4807 31.7117 18.7115 31.2661 16.108C30.7028 12.8167 28.9128 9.92926 26.2859 7.83814C25.8328 7.47413 25.3644 7.17516 24.8914 6.83998L24.9907 6.54736Z" fill="#251E19"/>
<path d="M25.3926 27.4971C25.7129 27.8182 26.0245 28.2377 26.342 28.5781C27.2234 29.5226 27.8974 30.1967 28.9823 30.8946C30.4228 32.048 31.8087 33.0971 33.0619 34.4577C36.5744 38.2715 38.0499 43.9951 39.2324 48.9084C40.3634 48.4659 40.6244 48.4733 41.7759 48.5393C41.9099 48.8837 41.9774 49.4405 42.0289 49.8144C40.8404 49.5016 39.0449 50.0795 37.9704 50.6185C37.5079 44.7477 35.3139 37.88 30.8947 33.737C29.0611 32.0179 26.3605 29.8194 25.3926 27.4971Z" fill="#F7AC1D"/>
<path d="M30.1623 26.1807C30.2079 25.9009 30.5974 25.633 30.8343 25.4351C30.8665 25.971 30.9326 26.4313 31.0043 26.9776C31.1394 28.0067 31.8068 30.5093 30.1097 30.5751C29.1707 30.6115 28.0555 29.7871 27.4179 29.1556C26.9816 28.7339 25.355 26.7616 25.3516 26.2882C25.6503 25.8835 25.8272 25.7713 26.2282 26.0787C26.4558 26.0442 26.4309 26.0264 26.6578 26.1352C26.9722 26.52 27.5998 26.768 28.0959 26.8793C28.8128 27.0402 29.737 26.179 30.1623 26.1807Z" fill="#F7AC1D"/>
<path d="M26.2285 26.0788C26.4561 26.0443 26.4312 26.0264 26.6581 26.1353C26.9725 26.52 27.6001 26.768 28.0962 26.8793C28.8131 27.0403 29.7373 26.179 30.1626 26.1807C30.2838 26.8698 30.5811 28.6886 30.2471 29.1958C29.199 30.7873 26.4581 26.8457 26.2285 26.0788Z" fill="#13496D"/>
<path d="M21.7208 26.3027C21.7291 26.2981 21.7375 26.2935 21.7459 26.289C22.958 25.2167 23.8194 25.4301 24.9509 26.5367C24.8637 27.4403 25.206 28.0994 25.6665 28.863L25.6622 28.9974C25.8349 29.1103 27.4942 31.1063 27.7793 31.4171L27.7692 31.4764C27.6701 31.472 27.6002 31.4732 27.5031 31.4478L27.5092 31.5562C27.3925 31.5722 27.2222 31.5724 27.1233 31.6131C27.4879 31.6596 28.5565 31.808 28.6009 32.2757L28.5497 32.3538L28.6495 32.4595C28.9722 32.4177 28.9933 32.5127 29.1958 32.7452L29.2699 32.8928C28.3876 33.3603 27.5288 33.8699 26.6967 34.4197C26.2238 34.726 25.6028 35.1658 25.127 35.4269C26.0495 35.429 26.9125 35.5608 27.5756 36.2342C28.6156 37.3075 28.6274 39.0735 27.495 40.089C26.1695 41.2776 23.8617 41.2227 22.6807 39.9205C21.636 38.7685 21.8258 37.1394 23.0456 36.2416C23.1646 36.154 23.3801 35.9357 23.4478 35.8068L23.483 35.71C23.4723 35.6112 23.4727 35.6183 23.4171 35.5347C22.9959 35.3418 21.3187 35.0538 20.7928 34.958L16.4946 34.1846L16.5137 34.1053C16.6439 34.0199 16.7239 34.0518 16.9044 34.0533C16.6071 33.9878 16.3088 33.9265 16.0098 33.8693C16.1558 33.7143 16.344 33.5002 16.5506 33.4528L16.5608 33.3909C16.6568 33.2867 16.6724 33.3191 16.8603 33.2949C16.7093 33.2582 16.7156 33.2871 16.6539 33.1929C16.7309 32.9421 17.0825 32.2015 17.2833 32.0639C17.2187 31.9354 17.2299 32.0028 17.2603 31.8534L17.2449 31.8313C17.2439 31.595 17.3675 31.116 17.3837 30.8156C17.4175 30.1912 17.4 29.5972 17.3963 28.9749C17.3947 28.7168 17.3512 28.1879 17.4721 27.9915C17.4133 27.8876 17.4295 27.9474 17.467 27.7977L17.4408 27.693L17.3316 27.5418C17.9472 26.8845 18.2911 26.0751 19.3483 25.721C20.4598 25.3486 20.7838 25.9231 21.5254 26.2857L21.6099 26.2216L21.7208 26.3027Z" fill="#0A0605"/>
<path d="M21.7212 26.3027C21.7295 26.2981 21.7379 26.2935 21.7463 26.289C22.9584 25.2167 23.8198 25.4301 24.9513 26.5367C24.8641 27.4403 25.2064 28.0994 25.6669 28.863C25.0013 29.117 24.5519 29.9009 23.7207 30.1996C21.7076 30.9227 20.4015 27.8863 18.6429 29.5193C18.4782 28.8077 18.0998 28.1955 17.4674 27.7977L17.4412 27.693L17.332 27.5418C17.9476 26.8845 18.2915 26.0751 19.3487 25.721C20.4602 25.3486 20.7842 25.9231 21.5258 26.2857L21.6103 26.2216L21.7212 26.3027Z" fill="#FEEA96"/>
<path d="M17.332 27.5417C17.9476 26.8844 18.2915 26.075 19.3487 25.7208C20.4602 25.3485 20.7842 25.923 21.5258 26.2856L21.6103 26.2214L21.7212 26.3025L21.6719 26.4361C22.0146 27.1312 22.2299 27.2768 22.5449 28.1269L22.5107 28.0831C22.0136 27.4374 21.8302 26.7951 21.1414 26.2479C19.9233 25.2805 18.5647 26.3323 17.7613 27.2966C17.6554 27.4237 17.5519 27.5708 17.4412 27.6928L17.332 27.5417Z" fill="#0A0605"/>
<path d="M17.4673 27.7976C18.0997 28.1954 18.4781 28.8076 18.6428 29.5193C20.4014 27.8862 21.7075 30.9226 23.7206 30.1995C24.5518 29.9008 25.0012 29.1169 25.6668 28.8629L25.6625 28.9973C25.8352 29.1102 27.4945 31.1062 27.7796 31.417L27.7695 31.4763C27.6704 31.4719 27.6005 31.4731 27.5034 31.4477L27.5095 31.5561C27.3928 31.5721 27.2225 31.5723 27.1236 31.613C26.6873 31.687 26.2657 31.7533 25.8715 31.9494C25.153 32.3068 24.218 32.9899 23.3742 32.969C20.6464 32.9013 20.3385 30.6645 17.2836 32.0638C17.219 31.9353 17.2302 32.0027 17.2606 31.8533L17.2452 31.8312C17.2442 31.5949 17.3678 31.1159 17.384 30.8155C17.4178 30.1911 17.4003 29.5971 17.3966 28.9748C17.395 28.7167 17.3515 28.1878 17.4724 27.9914C17.4136 27.8875 17.4298 27.9473 17.4673 27.7976Z" fill="#FEEA96"/>
<path d="M17.2606 31.8533C20.4424 30.4354 20.6956 32.7761 23.4 32.7602C24.963 32.7511 25.2847 31.3661 27.5034 31.4477L27.5095 31.5561C27.3928 31.5721 27.2225 31.5723 27.1236 31.613C26.6873 31.687 26.2657 31.7532 25.8715 31.9494C25.153 32.3068 24.218 32.9899 23.3742 32.969C20.6464 32.9013 20.3385 30.6645 17.2836 32.0638C17.219 31.9353 17.2302 32.0027 17.2606 31.8533Z" fill="#0A0605"/>
<path d="M17.4673 27.7976C18.0997 28.1954 18.4781 28.8076 18.6428 29.5193C20.4014 27.8862 21.7075 30.9226 23.7206 30.1995C24.5518 29.9008 25.0012 29.1169 25.6668 28.8629L25.6625 28.9973C25.4988 29.2076 25.0046 29.5282 24.8053 29.7152C22.7906 31.6066 21.6351 29.5419 19.6684 29.2175C19.0984 29.1234 18.6554 29.8623 18.4804 29.8833C18.2655 28.7927 18.2727 28.8099 17.4724 27.9914C17.4136 27.8875 17.4298 27.9473 17.4673 27.7976Z" fill="#0A0605"/>
<path d="M17.2837 32.0637C20.3386 30.6644 20.6465 32.9012 23.3743 32.9689C24.2181 32.9899 25.1531 32.3067 25.8716 31.9493C26.2658 31.7532 26.6874 31.6869 27.1237 31.613C27.4883 31.6594 28.5569 31.8078 28.6013 32.2755L28.5501 32.3536C27.7932 32.7241 25.8441 33.9416 25.1449 34.4936C24.9061 34.1616 24.4301 33.6924 23.914 34.0234C23.8369 34.0728 23.6858 34.2494 23.6715 34.3379C23.64 34.4333 23.6123 34.5411 23.5632 34.6256C21.3432 34.1155 19.108 33.6717 16.8607 33.2947C16.7097 33.258 16.716 33.287 16.6543 33.1927C16.7313 32.942 17.0829 32.2013 17.2837 32.0637Z" fill="#FEEA96"/>
<path d="M12.4307 -1.65161C12.4808 -1.62557 12.5301 -1.59795 12.5784 -1.56879C13.8281 -0.825081 14.3495 0.56943 14.6889 1.90463C15.8348 1.7609 17.3291 1.70292 18.4615 1.93176C18.6012 2.69096 18.6174 3.23406 19.0989 3.83127C19.681 4.12822 20.1558 3.66227 20.6076 3.33122C21.3896 3.48352 22.1569 3.57437 22.8321 3.99706C22.7284 4.43665 22.6405 4.90062 22.2908 5.2196L22.1373 5.15101C21.9062 5.13436 20.7201 4.75498 20.3767 4.66831C19.0518 4.3383 17.6917 4.16556 16.3252 4.15364C15.2416 4.1429 14.2108 4.20257 13.146 4.39876C12.9509 4.43468 12.6072 4.52484 12.4335 4.47163L12.4069 4.41428C12.364 4.39457 12.2684 4.36826 12.219 4.35289C12.6534 4.02554 12.8 3.70632 13.0829 3.25623C13.1626 2.95293 13.25 2.65174 13.3453 2.35287C13.6738 2.18397 13.9906 2.00113 14.3562 1.95309C14.6022 1.56861 13.0793 -0.231485 12.6563 -0.487177C12.413 -0.634234 11.795 -0.937757 11.6689 -1.12774L12.4307 -1.65161Z" fill="#04A86C"/>
<path d="M12.4307 -1.65161C12.4808 -1.62557 12.5301 -1.59795 12.5784 -1.56879C13.8281 -0.825081 14.3495 0.569429 14.6889 1.90463C15.8348 1.7609 17.3291 1.70292 18.4615 1.93176C18.6012 2.69096 18.6174 3.23406 19.0989 3.83127L18.9502 3.78091C18.9041 3.80589 18.8351 3.83994 18.7945 3.8691C18.3363 3.35719 18.3026 2.9211 18.1675 2.26251C16.8141 1.97886 14.9403 2.00965 13.6487 2.52733C13.5083 2.90346 13.4004 3.25274 13.1814 3.59038C13.1709 3.55309 13.18 3.57905 13.1395 3.51914C13.0853 3.62527 13.1216 3.60669 13.043 3.64094C12.9801 3.39197 13.1575 3.47696 13.0829 3.25623C13.1626 2.95293 13.25 2.65174 13.3453 2.35287C13.6738 2.18397 13.9906 2.00113 14.3562 1.95309C14.6022 1.56861 13.0793 -0.231485 12.6563 -0.487177C12.413 -0.634234 11.795 -0.937757 11.6689 -1.12774L12.4307 -1.65161Z" fill="#023510"/>
<path d="M20.607 3.33105C21.389 3.48335 22.1563 3.5742 22.8315 3.99689C22.7278 4.43648 22.6399 4.90045 22.2902 5.21943L22.1367 5.15085C22.6256 4.11677 22.4939 3.9251 21.3848 3.66254C21.1618 3.60973 20.9235 3.54903 20.699 3.49606C20.0715 3.97669 19.5635 4.43318 18.7939 3.86894C18.8345 3.83977 18.9035 3.80572 18.9496 3.78074L19.0983 3.8311C19.6804 4.12805 20.1552 3.6621 20.607 3.33105Z" fill="#001B00"/>
<path d="M13.0827 3.2561C13.1573 3.47683 12.9799 3.39184 13.0427 3.6408C13.1213 3.60656 13.085 3.62514 13.1392 3.51901C13.1797 3.57892 13.1707 3.55296 13.1811 3.59025C13.0329 3.9483 12.7437 4.22416 12.4066 4.41415C12.3637 4.39444 12.2681 4.36813 12.2188 4.35276C12.6531 4.02541 12.7997 3.70619 13.0827 3.2561Z" fill="#0A0605"/>
<path d="M30.6756 24.6705C30.874 24.6058 30.8734 24.3335 31.07 24.1057L31.1558 24.1122C31.2831 24.2627 31.2507 24.1907 31.229 24.4398C30.9075 24.8281 30.4704 25.3329 30.0908 25.6678C30.1728 25.5179 30.5816 24.7456 30.6756 24.6705Z" fill="#1C1919" fill-opacity="0.0117647"/>
</g>
</g>
<defs>
<clipPath id="clip0_25323_235980">
<rect width="32" height="32" fill="white"/>
</clipPath>
<clipPath id="clip1_25323_235980">
<rect width="72" height="81" fill="white" transform="translate(-18 -3)"/>
</clipPath>
</defs>
</svg>
